<svg width="168" height="84" viewBox="0 0 168 84" fill="none" xmlns="http://www.w3.org/2000/svg">
<path d="M39.9999 63.2322C58.0211 53.9489 93.3125 47.88 118.49 68.3827" stroke="#FFB703" stroke-width="4" stroke-linecap="round"/>
<path d="M10.26 8.44H14.076L24.012 34H19.764L17.064 27.052H7.2L4.536 34H0.252L10.26 8.44ZM16.272 24.064L12.168 12.868L7.92 24.064H16.272ZM36.821 34.36C35.381 34.36 34.073 34.024 32.897 33.352C31.745 32.656 30.833 31.732 30.161 30.58V34H26.669V7.72H30.629V18.736C31.373 17.536 32.297 16.588 33.401 15.892C34.529 15.196 35.849 14.848 37.361 14.848C38.609 14.848 39.749 15.112 40.781 15.64C41.813 16.168 42.689 16.888 43.409 17.8C44.153 18.712 44.717 19.756 45.101 20.932C45.509 22.108 45.713 23.356 45.713 24.676C45.713 25.996 45.485 27.244 45.029 28.42C44.597 29.596 43.973 30.628 43.157 31.516C42.341 32.404 41.393 33.1 40.313 33.604C39.257 34.108 38.093 34.36 36.821 34.36ZM35.777 30.976C36.641 30.976 37.433 30.808 38.153 30.472C38.873 30.112 39.497 29.644 40.025 29.068C40.553 28.492 40.949 27.82 41.213 27.052C41.501 26.284 41.645 25.492 41.645 24.676C41.645 23.548 41.405 22.492 40.925 21.508C40.469 20.524 39.821 19.732 38.981 19.132C38.141 18.532 37.169 18.232 36.065 18.232C35.273 18.232 34.529 18.424 33.833 18.808C33.137 19.168 32.513 19.66 31.961 20.284C31.433 20.884 30.989 21.556 30.629 22.3V27.268C30.773 27.82 31.025 28.324 31.385 28.78C31.745 29.212 32.165 29.596 32.645 29.932C33.125 30.244 33.641 30.496 34.193 30.688C34.745 30.88 35.273 30.976 35.777 30.976ZM57.7344 34.36C56.2464 34.36 54.9144 34.108 53.7384 33.604C52.5624 33.076 51.5424 32.356 50.6784 31.444C49.8384 30.532 49.1904 29.5 48.7344 28.348C48.2784 27.172 48.0504 25.924 48.0504 24.604C48.0504 23.284 48.2784 22.036 48.7344 20.86C49.1904 19.684 49.8384 18.652 50.6784 17.764C51.5424 16.852 52.5624 16.144 53.7384 15.64C54.9384 15.112 56.2704 14.848 57.7344 14.848C59.1984 14.848 60.5184 15.112 61.6944 15.64C62.8944 16.144 63.9144 16.852 64.7544 17.764C65.6184 18.652 66.2784 19.684 66.7344 20.86C67.1904 22.036 67.4184 23.284 67.4184 24.604C67.4184 25.924 67.1904 27.172 66.7344 28.348C66.2784 29.5 65.6184 30.532 64.7544 31.444C63.9144 32.356 62.8944 33.076 61.6944 33.604C60.5184 34.108 59.1984 34.36 57.7344 34.36ZM52.1184 24.64C52.1184 25.84 52.3704 26.92 52.8744 27.88C53.3784 28.84 54.0504 29.596 54.8904 30.148C55.7304 30.7 56.6784 30.976 57.7344 30.976C58.7664 30.976 59.7024 30.7 60.5424 30.148C61.4064 29.572 62.0904 28.804 62.5944 27.844C63.0984 26.86 63.3504 25.78 63.3504 24.604C63.3504 23.404 63.0984 22.324 62.5944 21.364C62.0904 20.404 61.4064 19.648 60.5424 19.096C59.7024 18.52 58.7664 18.232 57.7344 18.232C56.6784 18.232 55.7304 18.52 54.8904 19.096C54.0504 19.672 53.3784 20.44 52.8744 21.4C52.3704 22.336 52.1184 23.416 52.1184 24.64ZM70.7507 26.692V15.172H74.7107V25.9C74.7107 27.58 75.0107 28.852 75.6107 29.716C76.2347 30.556 77.1347 30.976 78.3107 30.976C79.0547 30.976 79.7747 30.82 80.4707 30.508C81.1907 30.196 81.8387 29.74 82.4147 29.14C83.0147 28.516 83.4947 27.772 83.8547 26.908V15.172H87.8147V29.536C87.8147 29.992 87.8987 30.316 88.0667 30.508C88.2347 30.7 88.5107 30.808 88.8947 30.832V34C88.4867 34.072 88.1507 34.12 87.8867 34.144C87.6227 34.168 87.3707 34.18 87.1307 34.18C86.4107 34.18 85.8107 33.988 85.3307 33.604C84.8507 33.196 84.5747 32.68 84.5027 32.056L84.4307 30.184C83.5907 31.552 82.4987 32.596 81.1547 33.316C79.8107 34.012 78.3347 34.36 76.7267 34.36C74.7587 34.36 73.2707 33.712 72.2627 32.416C71.2547 31.12 70.7507 29.212 70.7507 26.692ZM103.309 33.028C102.973 33.196 102.553 33.376 102.049 33.568C101.545 33.76 100.969 33.928 100.321 34.072C99.697 34.216 99.049 34.288 98.377 34.288C97.561 34.288 96.805 34.144 96.109 33.856C95.413 33.568 94.849 33.112 94.417 32.488C94.009 31.84 93.805 31.012 93.805 30.004V18.232H91.321V15.172H93.805V8.98H97.765V15.172H101.869V18.232H97.765V28.744C97.813 29.392 98.017 29.872 98.377 30.184C98.761 30.496 99.229 30.652 99.781 30.652C100.333 30.652 100.861 30.556 101.365 30.364C101.869 30.172 102.241 30.016 102.481 29.896L103.309 33.028ZM143.746 34H139.786V23.452C139.786 21.7 139.498 20.416 138.922 19.6C138.346 18.784 137.506 18.376 136.402 18.376C135.298 18.376 134.266 18.796 133.306 19.636C132.37 20.452 131.71 21.52 131.326 22.84V34H127.366V23.452C127.366 21.7 127.078 20.416 126.502 19.6C125.926 18.784 125.098 18.376 124.018 18.376C122.914 18.376 121.882 18.784 120.922 19.6C119.986 20.416 119.314 21.484 118.906 22.804V34H114.946V15.172H118.546V18.952C119.29 17.632 120.262 16.624 121.462 15.928C122.686 15.208 124.078 14.848 125.638 14.848C127.198 14.848 128.422 15.256 129.31 16.072C130.222 16.888 130.786 17.908 131.002 19.132C131.818 17.74 132.814 16.684 133.99 15.964C135.19 15.22 136.558 14.848 138.094 14.848C139.198 14.848 140.122 15.052 140.866 15.46C141.61 15.868 142.186 16.432 142.594 17.152C143.002 17.848 143.29 18.664 143.458 19.6C143.65 20.512 143.746 21.484 143.746 22.516V34ZM156.842 34.36C155.378 34.36 154.046 34.108 152.846 33.604C151.67 33.076 150.65 32.368 149.786 31.48C148.922 30.568 148.25 29.536 147.77 28.384C147.314 27.208 147.086 25.96 147.086 24.64C147.086 22.864 147.494 21.244 148.31 19.78C149.126 18.292 150.266 17.104 151.73 16.216C153.194 15.304 154.91 14.848 156.878 14.848C158.846 14.848 160.538 15.304 161.954 16.216C163.394 17.104 164.51 18.28 165.302 19.744C166.094 21.208 166.49 22.78 166.49 24.46C166.49 24.748 166.478 25.024 166.454 25.288C166.43 25.528 166.406 25.732 166.382 25.9H151.298C151.37 27.004 151.67 27.976 152.198 28.816C152.75 29.632 153.446 30.28 154.286 30.76C155.126 31.216 156.026 31.444 156.986 31.444C158.042 31.444 159.038 31.18 159.974 30.652C160.934 30.124 161.582 29.428 161.918 28.564L165.302 29.536C164.894 30.448 164.27 31.276 163.43 32.02C162.614 32.74 161.642 33.316 160.514 33.748C159.386 34.156 158.162 34.36 156.842 34.36ZM151.19 23.272H162.566C162.494 22.192 162.182 21.244 161.63 20.428C161.102 19.588 160.418 18.94 159.578 18.484C158.762 18.004 157.85 17.764 156.842 17.764C155.858 17.764 154.946 18.004 154.106 18.484C153.29 18.94 152.618 19.588 152.09 20.428C151.562 21.244 151.262 22.192 151.19 23.272Z" fill="white"/>
</svg>
