<svg id="53" viewBox="0 0 155 54" xmlns="http://www.w3.org/2000/svg" xmlns:xlink="http://www.w3.org/1999/xlink"><g transform="matrix(1,0,0,1,0,0)"><g id="53" opacity="1" style="mix-blend-mode:normal"><g><g><g transform="matrix(1,0,0,1,0,0)"><g id="13" opacity="1" style="mix-blend-mode:normal"><g><g><path id="13_fill_path" d="M28.224,15.088v24.912h-3.276v-18.576l-8.28,18.576h-2.304l-8.316,-18.612v18.612h-3.276v-24.912h3.528l9.216,20.592l9.216,-20.592zM51.7798,29.38c0,0.624 -0.036,1.284 -0.108,1.98h-15.768c0.12,1.944 0.78,3.468 1.98,4.572c1.224,1.08 2.7,1.62 4.428,1.62c1.416,0 2.592,-0.324 3.528,-0.972c0.96,-0.672 1.632,-1.56 2.016,-2.664h3.528c-0.528,1.896 -1.584,3.444 -3.168,4.644c-1.584,1.176 -3.552,1.764 -5.904,1.764c-1.872,0 -3.552,-0.42 -5.04,-1.26c-1.464,-0.84 -2.616,-2.028 -3.456,-3.564c-0.84,-1.56 -1.26,-3.36 -1.26,-5.4c0,-2.04 0.408,-3.828 1.224,-5.364c0.816,-1.536 1.956,-2.712 3.42,-3.528c1.488,-0.84 3.192,-1.26 5.112,-1.26c1.872,0 3.528,0.408 4.968,1.224c1.44,0.816 2.544,1.944 3.312,3.384c0.792,1.416 1.188,3.024 1.188,4.824zM48.3958,28.696c0,-1.248 -0.276,-2.316 -0.828,-3.204c-0.552,-0.912 -1.308,-1.596 -2.268,-2.052c-0.936,-0.48 -1.98,-0.72 -3.132,-0.72c-1.656,0 -3.072,0.528 -4.248,1.584c-1.152,1.056 -1.812,2.52 -1.98,4.392zM59.38,13.36v26.64h-3.276v-26.64zM72.3074,36.976l6.12,-16.704h3.492l-7.74,19.728h-3.816l-7.74,-19.728h3.528zM102.135,20.272l-11.8799,29.016h-3.384l3.888,-9.504l-7.956,-19.512h3.636l6.192,15.984l6.12,-15.984zM115.04,19.912c2.4,0 4.344,0.732 5.832,2.196c1.488,1.44 2.232,3.528 2.232,6.264v11.628h-3.24v-11.16c0,-1.968 -0.492,-3.468 -1.476,-4.5c-0.984,-1.056 -2.328,-1.584 -4.032,-1.584c-1.728,0 -3.108,0.54 -4.14,1.62c-1.008,1.08 -1.512,2.652 -1.512,4.716v10.908h-3.276v-19.728h3.276v2.808c0.648,-1.008 1.524,-1.788 2.628,-2.34c1.128,-0.552 2.364,-0.828 3.708,-0.828zM146.456,29.38c0,0.624 -0.036,1.284 -0.108,1.98h-15.768c0.12,1.944 0.78,3.468 1.98,4.572c1.224,1.08 2.7,1.62 4.428,1.62c1.416,0 2.592,-0.324 3.528,-0.972c0.96,-0.672 1.632,-1.56 2.016,-2.664h3.528c-0.528,1.896 -1.584,3.444 -3.168,4.644c-1.584,1.176 -3.552,1.764 -5.904,1.764c-1.872,0 -3.552,-0.42 -5.04,-1.26c-1.464,-0.84 -2.616,-2.028 -3.456,-3.564c-0.84,-1.56 -1.26,-3.36 -1.26,-5.4c0,-2.04 0.408,-3.828 1.224,-5.364c0.816,-1.536 1.956,-2.712 3.42,-3.528c1.488,-0.84 3.192,-1.26 5.112,-1.26c1.872,0 3.528,0.408 4.968,1.224c1.44,0.816 2.544,1.944 3.312,3.384c0.792,1.416 1.188,3.024 1.188,4.824zM143.072,28.696c0,-1.248 -0.276,-2.316 -0.828,-3.204c-0.552,-0.912 -1.308,-1.596 -2.268,-2.052c-0.936,-0.48 -1.98,-0.72 -3.132,-0.72c-1.656,0 -3.072,0.528 -4.248,1.584c-1.152,1.056 -1.812,2.52 -1.98,4.392z" fill-rule="nonzero" fill="rgb(255, 255, 255)" fill-opacity="1" style="mix-blend-mode:NORMAL"></path></g></g></g></g><g transform="matrix(1,0,0,1,135,26)"><g id="14" opacity="0" style="mix-blend-mode:normal"><g><g><path id="14_fill_path" d="M6,3c0,0.3147 -0.0495,0.6276 -0.1467,0.927c-0.0972,0.2994 -0.2412,0.5817 -0.4263,0.8364c-0.1851,0.2547 -0.4089,0.4785 -0.6636,0.6636c-0.2547,0.1851 -0.537,0.3291 -0.8364,0.4263c-0.2994,0.0972 -0.6123,0.1467 -0.927,0.1467c-0.3147,0 -0.6276,-0.0495 -0.927,-0.1467c-0.2994,-0.0972 -0.5817,-0.2412 -0.8364,-0.4263c-0.2547,-0.1851 -0.4785,-0.4089 -0.6636,-0.6636c-0.1851,-0.2547 -0.3291,-0.537 -0.4263,-0.8364c-0.0972,-0.2994 -0.1467,-0.6123 -0.1467,-0.927c0,-0.3147 0.0495,-0.6276 0.1467,-0.927c0.0972,-0.2994 0.2412,-0.5817 0.4263,-0.8364c0.1851,-0.2547 0.4089,-0.4785 0.6636,-0.6636c0.2547,-0.1851 0.537,-0.3291 0.8364,-0.4263c0.2994,-0.0972 0.6123,-0.1467 0.927,-0.1467c0.3147,0 0.6276,0.0495 0.927,0.1467c0.2994,0.0972 0.5817,0.2412 0.8364,0.4263c0.2547,0.1851 0.4785,0.4089 0.6636,0.6636c0.1851,0.2547 0.3291,0.537 0.4263,0.8364c0.0972,0.2994 0.1467,0.6123 0.1467,0.927z" fill-rule="nonzero" fill="rgb(255, 183, 3)" fill-opacity="1" style="mix-blend-mode:NORMAL"></path></g></g></g></g></g></g></g></g><animateTransform href="#14" attributeName="transform" type="translate" values="0 0;0 0;13 -12;13 -12" dur="5s" repeatCount="indefinite" calcMode="spline" keyTimes="0;0.32;0.48;1" keySplines="0.5 0.35 0.15 1;0.5 0.35 0.15 1;0.5 0.35 0.15 1" additive="sum"></animateTransform><animate href="#14" attributeName="opacity" values="0;0;1;1" dur="5s" repeatCount="indefinite" calcMode="spline" keyTimes="0;0.32;0.48;1" keySplines="0.5 0.35 0.15 1;0.5 0.35 0.15 1;0.5 0.35 0.15 1"></animate></svg>