<svg width="157" height="86" viewBox="0 0 157 86" fill="none" xmlns="http://www.w3.org/2000/svg">
<path d="M28.224 15.088V40H24.948V21.424L16.668 40H14.364L6.048 21.388V40H2.772V15.088H6.3L15.516 35.68L24.732 15.088H28.224ZM51.7798 29.38C51.7798 30.004 51.7438 30.664 51.6718 31.36H35.9038C36.0238 33.304 36.6838 34.828 37.8838 35.932C39.1078 37.012 40.5838 37.552 42.3118 37.552C43.7278 37.552 44.9038 37.228 45.8398 36.58C46.7998 35.908 47.4718 35.02 47.8558 33.916H51.3838C50.8558 35.812 49.7998 37.36 48.2158 38.56C46.6318 39.736 44.6638 40.324 42.3118 40.324C40.4398 40.324 38.7598 39.904 37.2718 39.064C35.8078 38.224 34.6558 37.036 33.8158 35.5C32.9758 33.94 32.5558 32.14 32.5558 30.1C32.5558 28.06 32.9638 26.272 33.7798 24.736C34.5958 23.2 35.7358 22.024 37.1998 21.208C38.6878 20.368 40.3918 19.948 42.3118 19.948C44.1838 19.948 45.8398 20.356 47.2798 21.172C48.7198 21.988 49.8238 23.116 50.5918 24.556C51.3838 25.972 51.7798 27.58 51.7798 29.38ZM48.3958 28.696C48.3958 27.448 48.1198 26.38 47.5678 25.492C47.0158 24.58 46.2598 23.896 45.2998 23.44C44.3638 22.96 43.3198 22.72 42.1678 22.72C40.5118 22.72 39.0958 23.248 37.9198 24.304C36.7678 25.36 36.1078 26.824 35.9398 28.696H48.3958ZM59.38 13.36V40H56.104V13.36H59.38ZM72.3074 36.976L78.4274 20.272H81.9194L74.1794 40H70.3634L62.6234 20.272H66.1514L72.3074 36.976ZM102.135 20.272L90.2551 49.288H86.8711L90.7591 39.784L82.8031 20.272H86.4391L92.6311 36.256L98.7511 20.272H102.135ZM115.04 19.912C117.44 19.912 119.384 20.644 120.872 22.108C122.36 23.548 123.104 25.636 123.104 28.372V40H119.864V28.84C119.864 26.872 119.372 25.372 118.388 24.34C117.404 23.284 116.06 22.756 114.356 22.756C112.628 22.756 111.248 23.296 110.216 24.376C109.208 25.456 108.704 27.028 108.704 29.092V40H105.428V20.272H108.704V23.08C109.352 22.072 110.228 21.292 111.332 20.74C112.46 20.188 113.696 19.912 115.04 19.912ZM146.456 29.38C146.456 30.004 146.42 30.664 146.348 31.36H130.58C130.7 33.304 131.36 34.828 132.56 35.932C133.784 37.012 135.26 37.552 136.988 37.552C138.404 37.552 139.58 37.228 140.516 36.58C141.476 35.908 142.148 35.02 142.532 33.916H146.06C145.532 35.812 144.476 37.36 142.892 38.56C141.308 39.736 139.34 40.324 136.988 40.324C135.116 40.324 133.436 39.904 131.948 39.064C130.484 38.224 129.332 37.036 128.492 35.5C127.652 33.94 127.232 32.14 127.232 30.1C127.232 28.06 127.64 26.272 128.456 24.736C129.272 23.2 130.412 22.024 131.876 21.208C133.364 20.368 135.068 19.948 136.988 19.948C138.86 19.948 140.516 20.356 141.956 21.172C143.396 21.988 144.5 23.116 145.268 24.556C146.06 25.972 146.456 27.58 146.456 29.38ZM143.072 28.696C143.072 27.448 142.796 26.38 142.244 25.492C141.692 24.58 140.936 23.896 139.976 23.44C139.04 22.96 137.996 22.72 136.844 22.72C135.188 22.72 133.772 23.248 132.596 24.304C131.444 25.36 130.784 26.824 130.616 28.696H143.072Z" fill="black"/>
<circle cx="153" cy="17" r="4" fill="#8766E6"/>
<path d="M52.9999 65.2322C71.0211 55.9489 106.312 49.88 131.49 70.3827" stroke="#8766E6" stroke-width="4" stroke-linecap="round"/>
</svg>
