<svg width="139" height="108" viewBox="0 0 139 108" fill="none" xmlns="http://www.w3.org/2000/svg">
<path d="M47.95 107.9C39.45 107.9 32.2 106.5 26.2 103.7C20.2 100.8 15.3 96.9 11.5 92C7.8 87 5.05 81.35 3.25 75.05C1.55 68.65 0.7 61.95 0.7 54.95V0.499994H25.3V54.95C25.3 58.95 25.7 62.85 26.5 66.65C27.3 70.35 28.6 73.65 30.4 76.55C32.2 79.45 34.5 81.75 37.3 83.45C40.2 85.15 43.75 86 47.95 86C52.25 86 55.85 85.15 58.75 83.45C61.65 81.65 63.95 79.3 65.65 76.4C67.35 73.4 68.6 70.05 69.4 66.35C70.2 62.65 70.6 58.85 70.6 54.95V0.499994H95.2V54.95C95.2 62.35 94.25 69.25 92.35 75.65C90.55 82.05 87.75 87.7 83.95 92.6C80.15 97.4 75.25 101.15 69.25 103.85C63.35 106.55 56.25 107.9 47.95 107.9Z" fill="url(#paint0_linear_36_45)"/>
<path d="M114.261 107V0.499994H138.861V107H114.261Z" fill="white"/>
<defs>
<linearGradient id="paint0_linear_36_45" x1="71" y1="-34" x2="-7.42506" y2="142.256" gradientUnits="userSpaceOnUse">
<stop stop-color="#DF2727"/>
<stop offset="0.955752" stop-color="#FFB703"/>
</linearGradient>
</defs>
</svg>
