<svg width="151" height="129" viewBox="0 0 151 129" fill="none" xmlns="http://www.w3.org/2000/svg">
<path d="M43.808 98.576C38.368 98.576 33.728 97.68 29.888 95.888C26.048 94.032 22.912 91.536 20.48 88.4C18.112 85.2 16.352 81.584 15.2 77.552C14.112 73.456 13.568 69.168 13.568 64.688V29.84H29.312V64.688C29.312 67.248 29.568 69.744 30.08 72.176C30.592 74.544 31.424 76.656 32.576 78.512C33.728 80.368 35.2 81.84 36.992 82.928C38.848 84.016 41.12 84.56 43.808 84.56C46.56 84.56 48.864 84.016 50.72 82.928C52.576 81.776 54.048 80.272 55.136 78.416C56.224 76.496 57.024 74.352 57.536 71.984C58.048 69.616 58.304 67.184 58.304 64.688V29.84H74.048V64.688C74.048 69.424 73.44 73.84 72.224 77.936C71.072 82.032 69.28 85.648 66.848 88.784C64.416 91.856 61.28 94.256 57.44 95.984C53.664 97.712 49.12 98.576 43.808 98.576Z" fill="url(#paint0_linear_43_3)"/>
<path d="M96.2308 29.84L111.015 53.36L125.799 29.84H142.887L120.327 64.4L142.119 98H125.031L111.015 75.44L96.9988 98H79.8148L101.607 64.4L79.0467 29.84H96.2308Z" fill="white"/>
<defs>
<linearGradient id="paint0_linear_43_3" x1="75.5" y1="8" x2="34.7303" y2="129.937" gradientUnits="userSpaceOnUse">
<stop stop-color="#DF2727"/>
<stop offset="0.955752" stop-color="#FFB703"/>
</linearGradient>
</defs>
</svg>
